<svg width="32" height="32" viewBox="0 0 32 32" fill="none" xmlns="http://www.w3.org/2000/svg">
  <rect width="32" height="32" rx="8" fill="#0A0A0A"/>
  <!-- Treasure map design -->
  <path d="M6 10L16 6L26 10V22L16 26L6 22V10Z" stroke="#00FFFF" stroke-width="2" fill="none"/>
  <!-- Map marker in center -->
  <circle cx="16" cy="16" r="2" fill="#00FFFF"/>
  <!-- Map grid lines -->
  <path d="M16 10V22M6 16H26" stroke="#00FFFF" stroke-width="0.5" opacity="0.3"/>
  <!-- Compass rose -->
  <path d="M16 8L18 12L16 16L14 12L16 8Z" fill="#00FFFF" opacity="0.6"/>
  <path d="M24 16L20 18L16 16L20 14L24 16Z" fill="#00FFFF" opacity="0.6"/>
  <path d="M16 24L14 20L16 16L18 20L16 24Z" fill="#00FFFF" opacity="0.6"/>
  <path d="M8 16L12 14L16 16L12 18L8 16Z" fill="#00FFFF" opacity="0.6"/>
</svg>
